<?xml version="1.0" encoding="utf-8"?>
<!-- Generator: Adobe Illustrator 16.0.4, SVG Export Plug-In . SVG Version: 6.00 Build 0)  -->
<!DOCTYPE svg PUBLIC "-//W3C//DTD SVG 1.0//EN" "http://www.w3.org/TR/2001/REC-SVG-20010904/DTD/svg10.dtd">
<svg version="1.0" id="Layer_1" xmlns="http://www.w3.org/2000/svg" xmlns:xlink="http://www.w3.org/1999/xlink" x="0px" y="0px"
	 width="82.637px" height="73.055px" viewBox="0 0 82.637 73.055" enable-background="new 0 0 82.637 73.055" xml:space="preserve">
<g>
	<path fill-rule="evenodd" clip-rule="evenodd" fill="#00AEEF" d="M39.622,6.489c5.107,0,9.875,1.448,13.918,3.955
		c-0.39-0.907-0.606-1.907-0.606-2.957C52.934,3.353,56.285,0,60.42,0c4.136,0,7.487,3.353,7.487,7.487s-3.352,7.487-7.487,7.487
		c-0.524,0-1.037-0.055-1.53-0.156c4.456,4.734,7.188,11.11,7.188,18.126c0,9.771-5.298,18.305-13.178,22.886
		c3.692-3.917,5.957-9.196,5.957-15.005c0-7.846-4.131-14.726-10.336-18.588c1.583-1.501,2.553-3.62,2.553-5.932
		c0-4.51-3.657-8.168-8.168-8.168c-4.51,0-8.167,3.658-8.167,8.168c0,0.938,0.16,1.853,0.462,2.713
		C23.947,19.922,15.098,29.34,15.098,40.825c0,0.799,0.044,1.587,0.127,2.364c-1.324-3.151-2.058-6.612-2.058-10.245
		C13.167,18.333,25.012,6.489,39.622,6.489"/>
	<path fill-rule="evenodd" clip-rule="evenodd" fill="#A6CE39" d="M36.999,21.464c0.61,0,1.214,0.03,1.81,0.087
		c-1.558-1.218-2.559-3.114-2.559-5.245c0-3.676,2.979-6.655,6.656-6.655c3.675,0,6.654,2.979,6.654,6.655
		c0,3.271-2.358,5.991-5.469,6.55c6.82,2.795,11.625,9.499,11.625,17.326c0,10.338-8.38,18.718-18.718,18.718
		c-2.242,0-4.392-0.394-6.384-1.116c1.022,0.229,2.086,0.353,3.178,0.353c7.949,0,14.392-6.444,14.392-14.392
		c0-7.949-6.442-14.394-14.392-14.394c-7.948,0-14.393,6.444-14.393,14.394c0,1.612,0.266,3.164,0.756,4.611
		c-1.201-2.469-1.875-5.242-1.875-8.174C18.281,29.845,26.661,21.464,36.999,21.464"/>
	<path fill-rule="evenodd" clip-rule="evenodd" fill="#FCD92B" d="M34.586,55.406c-5.604,0-10.148-4.544-10.148-10.148
		c0-2.475,0.885-4.74,2.354-6.501c-0.829,1.24-1.312,2.732-1.312,4.337c0,4.319,3.501,7.82,7.821,7.82
		c4.317,0,7.818-3.501,7.818-7.82c0-4.318-3.501-7.82-7.818-7.82c-0.247,0-0.49,0.012-0.73,0.035
		c0.652-0.132,1.326-0.201,2.016-0.201c5.605,0,10.149,4.544,10.149,10.15C44.735,50.862,40.191,55.406,34.586,55.406"/>
	<path fill-rule="evenodd" clip-rule="evenodd" fill="#FCD92B" d="M29.892,32.68c2.39,0,4.326,1.937,4.326,4.326
		c0,2.389-1.937,4.325-4.326,4.325c-2.389,0-4.326-1.937-4.326-4.325C25.565,34.616,27.503,32.68,29.892,32.68"/>
	<g>
		<path fill="#00AEEF" d="M4.188,45.783l1.914-0.849l1.947,4.395l-3.924,1.738c-0.946-0.588-1.665-1.158-2.159-1.713
			c-0.493-0.555-0.937-1.275-1.33-2.163c-0.483-1.093-0.691-2.065-0.624-2.919c0.067-0.853,0.385-1.633,0.954-2.337
			c0.568-0.705,1.33-1.269,2.284-1.691c1.004-0.445,1.969-0.625,2.896-0.54c0.927,0.086,1.76,0.441,2.499,1.071
			c0.573,0.491,1.093,1.265,1.561,2.319c0.45,1.017,0.695,1.818,0.734,2.403c0.04,0.586-0.061,1.132-0.301,1.636
			c-0.239,0.504-0.619,0.972-1.139,1.402L7.795,46.01c0.298-0.267,0.479-0.576,0.543-0.927c0.064-0.352,0.004-0.737-0.182-1.155
			c-0.276-0.624-0.712-1.024-1.31-1.203c-0.597-0.179-1.364-0.06-2.302,0.355c-0.996,0.441-1.625,0.943-1.885,1.507
			c-0.262,0.563-0.243,1.181,0.054,1.85c0.141,0.318,0.321,0.602,0.541,0.849c0.22,0.249,0.522,0.51,0.91,0.784l0.866-0.385
			L4.188,45.783z"/>
	</g>
	<g>
		<path fill="#00AEEF" d="M12.254,58.788l-3.608-4.285c-0.311,0.326-0.487,0.635-0.532,0.924c-0.068,0.41,0.039,0.781,0.318,1.113
			c0.177,0.21,0.396,0.365,0.661,0.467c0.163,0.059,0.386,0.084,0.666,0.076l1.579,2.27c-0.832,0.15-1.561,0.1-2.188-0.15
			c-0.626-0.25-1.298-0.801-2.014-1.652c-0.623-0.738-1.008-1.408-1.155-2.007c-0.149-0.599-0.114-1.228,0.104-1.889
			c0.22-0.661,0.636-1.248,1.248-1.764c0.872-0.734,1.812-1.049,2.822-0.944c1.01,0.104,1.928,0.648,2.756,1.632
			c0.673,0.799,1.082,1.531,1.23,2.196c0.146,0.666,0.094,1.312-0.162,1.939c-0.254,0.629-0.75,1.252-1.485,1.871L12.254,58.788z
			 M11.447,55.751c0.378-0.389,0.58-0.749,0.607-1.08c0.025-0.33-0.084-0.643-0.332-0.938c-0.286-0.34-0.65-0.497-1.09-0.473
			c-0.277,0.012-0.598,0.141-0.959,0.385L11.447,55.751z"/>
	</g>
	<g>
		<path fill="#00AEEF" d="M20.436,64.911L15.88,61.65c-0.22,0.394-0.315,0.736-0.288,1.026c0.037,0.414,0.232,0.748,0.586,1
			c0.223,0.16,0.475,0.256,0.756,0.289c0.173,0.018,0.395-0.014,0.664-0.09l2.091,1.809c-0.769,0.35-1.487,0.48-2.156,0.393
			c-0.669-0.086-1.456-0.453-2.36-1.101c-0.785-0.562-1.324-1.116-1.615-1.659c-0.293-0.543-0.414-1.162-0.365-1.855
			c0.049-0.695,0.307-1.367,0.771-2.019c0.664-0.927,1.498-1.464,2.502-1.612s2.028,0.15,3.074,0.899
			c0.85,0.607,1.427,1.216,1.734,1.823c0.307,0.609,0.416,1.248,0.323,1.92c-0.092,0.672-0.417,1.398-0.978,2.181L20.436,64.911z
			 M18.904,62.167c0.27-0.471,0.375-0.869,0.32-1.196c-0.057-0.327-0.24-0.603-0.553-0.827c-0.361-0.258-0.752-0.32-1.174-0.189
			c-0.266,0.081-0.543,0.285-0.834,0.611L18.904,62.167z"/>
	</g>
	<g>
		<path fill="#00AEEF" d="M23.66,61.657l6.256,2.57l-0.621,1.512l-4.828,2.068l3.611,1.484l-0.725,1.766l-6.719-2.762l0.689-1.677
			l4.59-1.974l-2.979-1.225L23.66,61.657z"/>
	</g>
	<g>
		<path fill="#00AEEF" d="M33.154,67.322l-2.595-0.696c0.173-0.445,0.374-0.786,0.604-1.02c0.229-0.236,0.535-0.422,0.92-0.561
			c0.274-0.1,0.641-0.153,1.095-0.159c0.456-0.007,0.941,0.03,1.457,0.112c0.827,0.132,1.484,0.284,1.971,0.455
			c0.487,0.173,0.874,0.434,1.162,0.779c0.203,0.24,0.343,0.56,0.419,0.954c0.076,0.394,0.088,0.761,0.033,1.1l-0.505,3.18
			c-0.054,0.34-0.074,0.608-0.062,0.807c0.012,0.199,0.066,0.46,0.164,0.781l-2.59-0.411c-0.075-0.202-0.12-0.354-0.136-0.456
			c-0.017-0.103-0.024-0.261-0.022-0.474c-0.417,0.291-0.816,0.482-1.196,0.574c-0.521,0.122-1.104,0.132-1.749,0.029
			c-0.859-0.137-1.48-0.439-1.861-0.908c-0.384-0.469-0.528-0.994-0.436-1.578c0.087-0.547,0.319-0.971,0.695-1.271
			c0.378-0.302,1.012-0.471,1.902-0.504c1.068-0.045,1.763-0.084,2.082-0.119c0.321-0.034,0.664-0.092,1.03-0.174
			c0.054-0.338,0.021-0.586-0.097-0.744c-0.12-0.158-0.354-0.266-0.708-0.322c-0.451-0.071-0.803-0.053-1.052,0.056
			C33.487,66.838,33.311,67.027,33.154,67.322z M35.317,69.154c-0.401,0.074-0.816,0.132-1.245,0.17
			c-0.584,0.061-0.961,0.15-1.133,0.271c-0.178,0.125-0.281,0.282-0.312,0.473c-0.034,0.217,0.013,0.407,0.142,0.567
			c0.13,0.162,0.342,0.267,0.636,0.313c0.307,0.049,0.605,0.02,0.893-0.088c0.288-0.107,0.505-0.259,0.649-0.456
			c0.146-0.197,0.245-0.467,0.3-0.811L35.317,69.154z"/>
	</g>
	<g>
		<path fill="#00AEEF" d="M44.154,62.973l5.657-1.374c0.943-0.229,1.725-0.171,2.343,0.173c0.618,0.346,1.01,0.861,1.178,1.552
			c0.141,0.578,0.081,1.116-0.179,1.618c-0.173,0.334-0.472,0.639-0.896,0.91c0.744-0.002,1.332,0.162,1.763,0.494
			c0.431,0.33,0.723,0.808,0.874,1.43c0.123,0.508,0.114,0.992-0.022,1.455c-0.138,0.461-0.382,0.86-0.733,1.195
			c-0.218,0.208-0.575,0.408-1.071,0.598c-0.657,0.256-1.098,0.409-1.32,0.463l-5.217,1.268L44.154,62.973z M48.135,66.068
			l1.313-0.318c0.472-0.115,0.78-0.275,0.926-0.483c0.145-0.207,0.181-0.464,0.106-0.771c-0.069-0.285-0.216-0.485-0.439-0.6
			c-0.224-0.115-0.564-0.117-1.021-0.006l-1.335,0.324L48.135,66.068z M49.067,69.911l1.541-0.374
			c0.521-0.127,0.866-0.308,1.034-0.543c0.168-0.238,0.216-0.512,0.14-0.822c-0.07-0.289-0.232-0.496-0.485-0.621
			c-0.255-0.123-0.646-0.122-1.176,0.006l-1.534,0.373L49.067,69.911z"/>
	</g>
	<g>
		<path fill="#00AEEF" d="M54.912,62.755l2.331-1.186l0.541,1.064c-0.01-0.575,0.061-1.01,0.211-1.305
			c0.151-0.295,0.401-0.531,0.752-0.71c0.367-0.187,0.827-0.277,1.38-0.27l0.132,2.166c-0.356,0.027-0.619,0.084-0.791,0.172
			c-0.326,0.166-0.512,0.429-0.554,0.789c-0.063,0.511,0.168,1.286,0.697,2.326l1.107,2.179l-2.502,1.272L54.912,62.755z"/>
	</g>
	<g>
		<path fill="#00AEEF" d="M69.473,58.146l-4.337,3.548c0.322,0.315,0.629,0.497,0.916,0.546c0.41,0.072,0.782-0.028,1.119-0.303
			c0.212-0.174,0.37-0.393,0.475-0.654c0.062-0.164,0.091-0.385,0.087-0.666l2.292-1.547c0.138,0.834,0.076,1.562-0.184,2.186
			c-0.258,0.622-0.818,1.286-1.679,1.99c-0.747,0.611-1.423,0.986-2.022,1.127c-0.602,0.141-1.23,0.096-1.888-0.133
			c-0.657-0.228-1.239-0.652-1.746-1.271c-0.722-0.883-1.022-1.828-0.904-2.836s0.675-1.918,1.671-2.732
			c0.809-0.662,1.546-1.061,2.213-1.199c0.668-0.137,1.313-0.074,1.938,0.189c0.625,0.264,1.241,0.768,1.85,1.512L69.473,58.146z
			 M66.425,58.91c-0.385-0.383-0.742-0.59-1.072-0.622c-0.33-0.03-0.645,0.074-0.941,0.317c-0.345,0.281-0.507,0.644-0.49,1.084
			c0.01,0.277,0.133,0.599,0.373,0.964L66.425,58.91z"/>
	</g>
	<g>
		<path fill="#00AEEF" d="M70.822,53.348L69.01,55.33c-0.315-0.357-0.525-0.693-0.627-1.006c-0.104-0.311-0.128-0.669-0.074-1.073
			c0.037-0.29,0.158-0.64,0.362-1.046c0.204-0.408,0.46-0.822,0.769-1.242c0.498-0.674,0.936-1.188,1.312-1.541
			c0.378-0.353,0.786-0.577,1.226-0.673c0.308-0.069,0.654-0.048,1.04,0.065c0.385,0.113,0.716,0.271,0.993,0.477l2.591,1.91
			c0.276,0.204,0.505,0.346,0.688,0.426c0.182,0.081,0.438,0.152,0.768,0.214l-1.556,2.11c-0.214-0.026-0.37-0.057-0.468-0.088
			c-0.098-0.033-0.242-0.1-0.43-0.198c0.066,0.505,0.053,0.946-0.041,1.327c-0.131,0.518-0.391,1.039-0.779,1.566
			c-0.516,0.699-1.068,1.111-1.661,1.235c-0.592,0.124-1.126,0.011-1.601-0.34c-0.446-0.329-0.716-0.729-0.811-1.203
			s0.048-1.114,0.426-1.92c0.453-0.97,0.738-1.604,0.854-1.905c0.117-0.3,0.223-0.631,0.319-0.993
			c-0.276-0.203-0.512-0.288-0.706-0.256c-0.195,0.033-0.398,0.192-0.61,0.479c-0.271,0.369-0.417,0.688-0.435,0.959
			C70.546,52.828,70.633,53.072,70.822,53.348z M73.443,52.269c-0.119,0.391-0.258,0.785-0.422,1.183
			c-0.215,0.547-0.309,0.924-0.279,1.133c0.029,0.215,0.121,0.379,0.276,0.493c0.177,0.13,0.366,0.176,0.569,0.134
			c0.203-0.039,0.394-0.18,0.57-0.419c0.185-0.25,0.296-0.528,0.333-0.833c0.037-0.306,0.003-0.568-0.106-0.787
			s-0.303-0.432-0.582-0.639L73.443,52.269z"/>
	</g>
	<g>
		<path fill="#00AEEF" d="M70.111,45.505l1.068-2.648l4.818,1.942l-1.466-2.842l1.286-3.189l1.39,3.381l5.429-0.794l-1.178,2.92
			l-3.264,0.276l0.561,1.361l1.758,0.708l-1.068,2.648L70.111,45.505z"/>
	</g>
</g>
</svg>
